<svg width="31" height="39" viewBox="0 0 31 39" fill="none" xmlns="http://www.w3.org/2000/svg">
<path d="M15.3327 22.9998C19.5608 22.9998 22.9993 19.5613 22.9993 15.3332C22.9993 11.105 19.5608 7.6665 15.3327 7.6665C11.1045 7.6665 7.66602 11.105 7.66602 15.3332C7.66602 19.5613 11.1045 22.9998 15.3327 22.9998ZM15.3327 11.4998C17.4468 11.4998 19.166 13.2191 19.166 15.3332C19.166 17.4473 17.4468 19.1665 15.3327 19.1665C13.2186 19.1665 11.4993 17.4473 11.4993 15.3332C11.4993 13.2191 13.2186 11.4998 15.3327 11.4998Z" fill="white"/>
<path d="M14.2218 37.9768C14.5462 38.2085 14.9349 38.333 15.3335 38.333C15.7321 38.333 16.1208 38.2085 16.4452 37.9768C17.0278 37.5647 30.7224 27.6767 30.6668 15.3333C30.6668 6.87892 23.7879 0 15.3335 0C6.87909 0 0.000168739 6.87892 0.000168739 15.3238C-0.0554146 27.6767 13.6392 37.5647 14.2218 37.9768ZM15.3335 3.83333C21.6758 3.83333 26.8335 8.99108 26.8335 15.3429C26.8738 23.8491 18.4232 31.487 15.3335 33.9921C12.2458 31.4851 3.79325 23.8453 3.8335 15.3333C3.8335 8.99108 8.99125 3.83333 15.3335 3.83333Z" fill="white"/>
</svg>
