<svg width="26" height="24" viewBox="0 0 26 24" fill="none" xmlns="http://www.w3.org/2000/svg">
<path d="M7.14636 13.6089L10.9197 9.83554L2.66636 1.59554C2.02636 0.955542 0.919691 1.12888 0.519691 1.95554C-0.426976 3.94221 -0.0803094 6.38221 1.55969 8.03554L7.14636 13.6089ZM16.1864 11.1955C18.2264 12.1422 21.093 11.4755 23.213 9.35554C25.7597 6.80887 26.253 3.15554 24.293 1.19554C22.3464 -0.751124 18.693 -0.271124 16.133 2.27554C14.013 4.39554 13.3464 7.26221 14.293 9.30221L2.21302 21.3822C1.96372 21.6315 1.82366 21.9696 1.82366 22.3222C1.82366 22.6748 1.96372 23.0129 2.21302 23.2622C2.46233 23.5115 2.80046 23.6516 3.15302 23.6516C3.50559 23.6516 3.84372 23.5115 4.09302 23.2622L12.3464 15.0355L20.5864 23.2755C20.7098 23.399 20.8563 23.4969 21.0176 23.5637C21.1789 23.6305 21.3518 23.6649 21.5264 23.6649C21.7009 23.6649 21.8738 23.6305 22.0351 23.5637C22.1964 23.4969 22.3429 23.399 22.4664 23.2755C22.5898 23.1521 22.6877 23.0055 22.7545 22.8443C22.8213 22.683 22.8557 22.5101 22.8557 22.3355C22.8557 22.161 22.8213 21.9881 22.7545 21.8268C22.6877 21.6655 22.5898 21.519 22.4664 21.3955L14.2264 13.1555L16.1864 11.1955V11.1955Z" fill="#02E4C0"/>
</svg>
