<svg width="33" height="33" viewBox="0 0 33 33" fill="none" xmlns="http://www.w3.org/2000/svg">
<path d="M30.7399 0H1.28083C0.572371 0 0 0.572371 0 1.28083V30.7399C0 31.4484 0.572371 32.0208 1.28083 32.0208H30.7399C31.4484 32.0208 32.0208 31.4484 32.0208 30.7399V1.28083C32.0208 0.572371 31.4484 0 30.7399 0ZM9.49816 27.2857H4.74708V12.0038H9.49816V27.2857ZM7.12462 9.91443C6.57998 9.91443 6.04756 9.75293 5.5947 9.45034C5.14184 9.14775 4.78888 8.71766 4.58046 8.21447C4.37203 7.71129 4.31749 7.15759 4.42375 6.62341C4.53 6.08923 4.79228 5.59855 5.1774 5.21342C5.56253 4.8283 6.0532 4.56603 6.58739 4.45977C7.12157 4.35352 7.67526 4.40805 8.17845 4.61648C8.68164 4.82491 9.11172 5.17787 9.41431 5.63072C9.7169 6.08358 9.87841 6.616 9.87841 7.16065C9.87441 8.68163 8.64161 9.91443 7.12462 9.91443ZM27.2857 27.2857H22.5386V19.8529C22.5386 18.0797 22.5066 15.8023 20.069 15.8023C17.5994 15.8023 17.2192 17.7315 17.2192 19.7248V27.2857H12.4761V12.0038H17.0311V14.0931H17.0951C17.7275 12.8924 19.2765 11.6235 21.59 11.6235C26.4011 11.6235 27.2857 14.7896 27.2857 18.9043V27.2857V27.2857Z" fill="white"/>
</svg>
