<svg width="34" height="28" viewBox="0 0 34 28" fill="none" xmlns="http://www.w3.org/2000/svg">
<path d="M33.3056 3.2141C32.0808 3.74244 30.7479 4.12269 29.3751 4.27079C30.8004 3.42398 31.8678 2.08617 32.377 0.508346C31.0395 1.30402 29.5742 1.86196 28.0462 2.15742C27.4076 1.47468 26.6352 0.93078 25.7771 0.559609C24.9191 0.188439 23.9938 -0.00204846 23.059 1.66124e-05C19.2765 1.66124e-05 16.2345 3.06601 16.2345 6.82845C16.2345 7.35679 16.2986 7.88513 16.4026 8.39346C10.739 8.09727 5.68769 5.39151 2.32951 1.24883C1.71762 2.29397 1.39696 3.48398 1.40091 4.69506C1.40091 7.0646 2.60569 9.15396 4.44288 10.3828C3.3602 10.3401 2.30286 10.0425 1.35688 9.51419V9.59824C1.35688 12.9164 3.7024 15.6662 6.82843 16.2986C6.24148 16.4511 5.63769 16.529 5.03126 16.5307C4.58698 16.5307 4.1667 16.4867 3.74243 16.4267C4.60699 19.1324 7.12462 21.0977 10.1226 21.1617C7.77705 22.9989 4.83914 24.0796 1.64907 24.0796C1.0767 24.0796 0.548356 24.0596 0 23.9956C3.02596 25.9368 6.61629 27.0576 10.4828 27.0576C23.0349 27.0576 29.9034 16.6588 29.9034 7.63297C29.9034 7.33678 29.9034 7.04058 29.8834 6.74439C31.2122 5.77176 32.377 4.56698 33.3056 3.2141Z" fill="white"/>
</svg>
